<?xml version="1.0" encoding="utf-8"?>
<!-- Generator: Adobe Illustrator 28.4.1, SVG Export Plug-In . SVG Version: 6.00 Build 0)  -->
<svg version="1.1" id="Ebene_1" xmlns="http://www.w3.org/2000/svg" xmlns:xlink="http://www.w3.org/1999/xlink" x="0px" y="0px"
	 viewBox="0 0 50 50" style="enable-background:new 0 0 50 50;" xml:space="preserve">
<style type="text/css">
	.st0{fill:#FFFFFF;}
</style>
<rect width="50.42" height="50"/>
<path class="st0" d="M40.16,11.78c-4.69-3.53-9.58-6.38-15.73-6.46c-6-0.08-13.11,2.63-17.57,10.13c-1.21,2.03-2.7,7.19-2.7,10.55
	c0,1.46,0.19,2.88,0.42,4.26c0.5,3.12,1.1,5.46,2.46,7.34c1.61,2.23,3.83,3.74,4.08,3.48c0.24-0.25-3.63-4.14-2.87-9.55
	c0.02-0.17-0.27-0.21-0.32-0.05c-0.21,0.6-0.64,1.65-0.78,2.04c-0.02,0.05-0.09,0.06-0.12,0c0-0.01-0.01-0.02-0.01-0.03
	c-0.36-0.97-0.48-2-0.53-3.03c-0.04-0.86-0.01-1.71,0.1-2.56c0.29-2.17,0.94-4.21,1.97-6.12c0.21-0.39,0.64-1.06,0.9-1.41
	c0.09-0.12,0.01-0.21-0.13-0.17C8.63,20.44,8,20.76,7.39,21.02c-0.06,0.02-0.11-0.04-0.09-0.09c0.1-0.22,0.18-0.41,0.28-0.6
	c1.12-2.07,2.56-3.85,4.39-5.3c0.07-0.05,0.14-0.16,0.17-0.24c0.61-1.8,1.64-3.32,2.97-4.62c0.65-0.63,1.35-1.2,2.19-1.55
	c0.11-0.05,0.23,0.02,0.26,0.14c0.21,0.82-0.01,1.84,0.18,2.67c0.1,0.42,0.34,1.02,0.65,1.31c0.06,0.05,0.14,0.04,0.19-0.02
	c0.66-0.84,1.35-1.59,2.16-2.23c0.62-0.49,1.27-0.93,2.03-1.17c0.39-0.12,0.43,0,0.32,0.59c-0.06,0.32-0.13,0.64-0.21,0.95
	c-0.33,1.3-0.67,2.6-1.02,3.9c-0.05,0.17,0.01,0.24,0.13,0.35c0.36,0.33,1.71,2.03,2.2,3.09c0.25,0.54,0.46,1.11,0.79,1.6
	c0.67,1.03,1.64,1.72,2.68,2.32c0.25,0.15,0.49,0.31,0.73,0.46c0.19,0.12,0.21,0.28,0.1,0.45c-0.11,0.19-0.23,0.38-0.37,0.53
	c-1.3,1.35-2.88,1.87-4.7,1.61c-1.07-0.15-2.09-0.47-3.11-0.84c-0.52-0.19-1.03-0.39-1.6-0.37c-0.44,0.02-0.7,0.4-0.72,0.85
	c-0.03,0.44,1.46,4.52,6.54,7.15c0,0,0,0,0,0c-0.5,0.77-1.17,1.65-2.05,2.53c-1.14,1.15-2.42,1.89-3.45,2.43
	c-0.15,0.08-0.08,0.27,0.09,0.3c0.95,0.16,4.59-1.76,6.62-4.52c1.38-1.89,4.89-6.87,6.62-8.36c1.97-1.69,4.21-2.56,6.81-2.1
	c1.74,0.31,3.2,1.11,4.24,2.63c0.52,0.76,0.75,1.62,0.85,2.55c0.01,0.07-0.05,0.12-0.12,0.11c-0.11-0.02-0.27-0.05-0.36-0.06
	c-0.96-0.17-1.9-0.1-2.81,0.28c-1.38,0.58-2.94,2.22-3.67,3.84c-0.05,0.11,0.06,0.22,0.17,0.17c1.11-0.57,2.23-0.96,2.98-1.05
	c0.1-0.01,0.17,0.11,0.11,0.19c-0.96,1.26-1.7,2.65-2.47,4.01c-1.29,2.27-2.91,5.03-4.96,6.6c-2.25,1.72-4.72,2.79-7.42,3.29
	c0,0,0,0,0,0c2.24,0.26,7.23,1.01,12.8-3.4c2.72-2.16,7.34-6.94,7.34-14.54C45.84,24.42,45.76,15.99,40.16,11.78z"/>
</svg>
