<?xml version="1.0" encoding="utf-8"?>
<!-- Generator: Adobe Illustrator 28.4.1, SVG Export Plug-In . SVG Version: 6.00 Build 0)  -->
<svg version="1.1" id="Ebene_1" xmlns="http://www.w3.org/2000/svg" xmlns:xlink="http://www.w3.org/1999/xlink" x="0px" y="0px"
	 viewBox="0 0 100 100" style="enable-background:new 0 0 100 100;" xml:space="preserve">
<style type="text/css">
	.st0{fill:#353535;}
</style>
<path class="st0" d="M45.3,86.1c-21.8,0-30.3-19.4-29.2-27.4c0.1-0.3-0.5-0.4-0.7-0.1c-0.4,1.2-1.2,3.2-1.6,4c0,0.1-0.2,0.1-0.2,0
	v-0.1c-0.7-1.9-1-3.9-1.1-5.9c-0.1-1.6,0-3.4,0.2-5c0.6-4.3,1.9-8.2,4-12c0.4-0.7,1.3-2.1,1.8-2.8c0.2-0.2,0-0.4-0.2-0.3
	c-1.4,0.5-2.7,1.1-3.9,1.6c-0.1,0.1-0.2-0.1-0.2-0.2c0.2-0.4,0.3-0.8,0.6-1.2c2.2-4,5.1-7.6,8.8-10.4c0.2-0.1,0.2-0.3,0.3-0.5
	c1.2-3.5,3.3-6.5,6-9c1.3-1.2,2.7-2.4,4.4-3c0.2-0.1,0.5,0,0.5,0.2c0.4,1.6,0,3.6,0.3,5.3c0.2,0.8,0.7,2,1.3,2.5
	c0.1,0.1,0.2,0.1,0.4,0c1.3-1.6,2.7-3.1,4.3-4.4c1.2-1,2.6-1.8,4.1-2.3c0.7-0.2,0.8,0,0.7,1.2c-0.1,0.7-0.2,1.2-0.4,1.9
	c-0.7,2.5-1.3,5.1-2.1,7.6c-0.1,0.3,0,0.5,0.2,0.7c0.7,0.7,3.5,3.9,4.4,6.1c0.5,1.1,0.9,2.1,1.6,3.1c1.3,2,3.3,3.4,5.4,4.5
	c0.5,0.2,1,0.6,1.5,0.9c0.4,0.2,0.4,0.6,0.2,0.9c-0.2,0.3-0.4,0.7-0.7,1.1c-2.7,2.6-5.8,3.6-9.5,3.1c-2.2-0.3-4.2-0.9-6.2-1.6
	c-1-0.4-2.1-0.7-3.2-0.7c-0.9,0-1.4,0.7-1.4,1.6c-0.1,0.9,3.2,9.1,13.4,14.3c-0.2,3.5-4.8,6-8.9,7.8c-0.3,0.2-0.2,0.6,0.2,0.6
	c1.9,0.2,7.5-0.4,11-6.1C53.7,58.3,60,48,63.1,44.8c3.6-3.6,8-5.8,13.3-5.3c3.6,0.3,6.6,1.6,9,4.4c1.2,1.4,1.7,3,2.2,4.9
	c0,0.2-0.1,0.2-0.2,0.2c-0.2,0-0.6-0.1-0.7-0.1c-2-0.2-3.8,0.2-5.6,1.1c-2.7,1.4-5.5,4.9-6.7,8.1c-0.1,0.2,0.2,0.4,0.3,0.3
	c2.2-1.3,4.3-2.3,5.8-2.5c0.2-0.1,0.3,0.2,0.2,0.3c-1.7,2.6-2.9,5.5-4.2,8.2C68.1,80.9,54.7,86.1,45.3,86.1z"/>
</svg>
