<?xml version="1.0" encoding="utf-8"?>
<!-- Generator: Adobe Illustrator 28.4.1, SVG Export Plug-In . SVG Version: 6.00 Build 0)  -->
<svg version="1.1" id="logo" xmlns:svg="http://www.w3.org/2000/svg"
	 xmlns="http://www.w3.org/2000/svg" xmlns:xlink="http://www.w3.org/1999/xlink" x="0px" y="0px" viewBox="0 0 1024 1024"
	 style="enable-background:new 0 0 1024 1024;" xml:space="preserve">
<style type="text/css">
	.st0{fill:#FFFFFF;}
</style>
<path id="path1" class="st0" d="M786.4,277.1c-74-59.9-171.7-112.3-281.7-113.7C397.2,162,269.9,209.7,190,341.7
	c-21.6,35.7-48.4,126.6-48.4,185.7c0,25.7,3.5,50.6,7.5,75c9,54.9,19.7,96.1,44.1,129.3c28.8,39.2,68.7,65.8,73.2,61.3
	c4.4-4.4-65.1-72.9-51.4-168.1c0.4-3-4.8-3.6-5.8-0.9c-3.7,10.6-11.5,29.1-14,35.9c-0.4,1-1.7,1-2.1,0c-0.1-0.2-0.2-0.4-0.2-0.6
	c-6.5-17.1-8.6-35.2-9.5-53.3c-0.8-15.1-0.3-30.2,1.8-45.1c5.2-38.2,16.9-74.1,35.2-107.8c3.7-6.8,11.6-18.6,16.1-24.8
	c1.5-2.1,0.1-3.7-2.3-2.9c-12.4,4.1-23.7,9.7-34.6,14.4c-1,0.4-2-0.6-1.6-1.6c1.7-3.8,3.2-7.3,5-10.6c20-36.4,45.9-67.8,78.6-93.3
	c1.2-0.9,2.5-2.8,3-4.2c10.9-31.7,29.3-58.4,53.2-81.4c11.6-11.1,24.2-21.1,39.3-27.3c2-0.8,4.2,0.3,4.7,2.4
	c3.8,14.5-0.1,32.4,3.3,47c1.7,7.4,6.1,17.9,11.6,23c1,0.9,2.6,0.7,3.4-0.3c11.8-14.7,24.2-28,38.7-39.3
	c11.1-8.6,22.7-16.4,36.4-20.6c7-2.1,7.6-0.1,5.7,10.4c-1,5.6-2.3,11.3-3.7,16.8c-6,22.9-12,45.8-18.2,68.7c-0.8,3,0.2,4.3,2.3,6.2
	c6.4,5.7,30.7,35.7,39.4,54.4c4.4,9.5,8.3,19.5,14.1,28.1c12,18.1,29.4,30.2,48,40.8c4.5,2.6,8.7,5.5,13.2,8.2c3.3,2,3.8,4.9,1.8,8
	c-2,3.3-4.1,6.7-6.7,9.4c-23.3,23.7-51.6,32.8-84.2,28.3c-19.1-2.6-37.5-8.2-55.6-14.9c-9.2-3.4-18.5-6.8-28.7-6.4
	c-7.8,0.3-12.5,7-12.9,14.9c-0.5,7.8,26.2,79.6,117.1,125.9l0,0c-2.2,30.8-40.3,56.9-76.2,72.7c-2.6,1.1-1.4,5.2,1.4,5.4
	c17.2,1.5,66.2-3.4,98.2-55.1c21.8-35.3,76.7-128.1,105.3-156.8c32.6-32.8,71.1-51.5,118.2-47.5c31.5,2.7,58.8,14.5,79.8,39.5
	c10.5,12.5,15.9,27.2,19.1,43.4c0.2,1.2-0.7,2.3-1.9,2.2c-2-0.2-4.9-0.4-6.6-0.5c-17.4-1.5-34.1,1.2-49.7,9.3
	c-23.7,12.4-49,43.6-59.7,73.1c-0.7,2,1.5,3.8,3.3,2.6c19-11.7,38.4-20.4,51.5-23.1c1.8-0.4,3.2,1.6,2.2,3.2
	c-15.2,23.6-26.2,49.2-38,74.3c-19.6,41.7-49.3,88.3-83.5,119.1c-35.4,31.8-75.3,53.7-122.2,62.9c-1.4,0.3-1.3,2.3,0.1,2.5
	c43.3,5,145.9-7.8,208.9-61c47.2-39.9,125.6-123.7,125.6-257.4C882.5,498,883.3,355.6,786.4,277.1L786.4,277.1z"/>
</svg>
