<?xml version="1.0" encoding="utf-8"?>
<!-- Generator: Adobe Illustrator 28.4.1, SVG Export Plug-In . SVG Version: 6.00 Build 0)  -->
<svg version="1.1" id="Ebene_1" xmlns="http://www.w3.org/2000/svg" xmlns:xlink="http://www.w3.org/1999/xlink" x="0px" y="0px"
	 viewBox="0 0 1024 1024" style="enable-background:new 0 0 1024 1024;" xml:space="preserve">
<style type="text/css">
	.st0{fill:#1E1E23;}
	.st1{fill:#FFFFFF;}
</style>
<rect class="st0" width="1024" height="1024"/>
<path id="path1" class="st1" d="M693.6,356.5c-49-39.6-113.6-74.3-186.4-75.3c-71.2-0.9-155.4,30.6-208.3,118
	c-14.3,23.6-32,83.8-32,122.8c0,17,2.3,33.5,4.9,49.6c6,36.4,13.1,63.6,29.2,85.6c19,26,45.4,43.6,48.4,40.5
	c2.9-2.9-43.1-48.2-34-111.3c0.3-2-3.2-2.5-3.8-0.6c-2.5,6.9-7.6,19.3-9.3,23.8c-0.2,0.7-1.1,0.7-1.4,0c-0.1-0.2-0.1-0.2-0.2-0.4
	c-4.2-11.4-5.6-23.3-6.3-35.2c-0.5-10-0.2-19.9,1.1-29.8c3.4-25.3,11.2-49,23.3-71.3c2.5-4.5,7.7-12.3,10.6-16.4
	c1-1.4,0.1-2.5-1.6-2c-8.2,2.7-15.7,6.5-22.9,9.6c-0.7,0.3-1.3-0.4-1.1-1.1c1.1-2.5,2.1-4.8,3.4-7c13.2-24,30.3-44.9,52-61.7
	c0.8-0.6,1.6-1.9,2-2.8c7.2-21,19.4-38.7,35.2-53.9c7.7-7.4,16-14,26-18.1c1.3-0.6,2.8,0.2,3.1,1.6c2.5,9.6-0.1,21.4,2.1,31.1
	c1.1,4.9,4,11.8,7.7,15.2c0.7,0.6,1.7,0.5,2.3-0.2c7.8-9.7,16-18.6,25.6-26c7.4-5.7,15-10.9,24-13.6c4.7-1.4,5.1-0.1,3.8,6.9
	c-0.7,3.8-1.5,7.4-2.5,11.1c-3.9,15.2-7.9,30.3-12,45.4c-0.6,2,0.2,2.9,1.6,4.1c4.2,3.8,20.3,23.6,26.1,36
	c2.9,6.3,5.6,12.9,9.3,18.6c8,11.9,19.4,20,31.7,27.1c2.9,1.7,5.8,3.6,8.7,5.4c2.2,1.4,2.5,3.3,1.2,5.3c-1.3,2.1-2.7,4.4-4.4,6.2
	c-15.4,15.7-34.2,21.7-55.7,18.8c-12.7-1.7-24.8-5.4-36.8-9.8c-6.1-2.3-12.3-4.5-19-4.2c-5.2,0.2-8.3,4.7-8.6,9.9
	c-0.3,5.1,17.3,52.7,77.5,83.3l0,0c-1.5,20.3-26.6,37.6-50.4,48.1c-1.7,0.7-0.9,3.4,0.9,3.6c11.4,1,43.8-2.3,65-36.4
	c14.5-23.3,50.7-84.7,69.7-103.8c21.6-21.7,47.1-34.1,78.3-31.4c20.8,1.8,38.9,9.6,52.8,26.2c6.9,8.3,10.5,18,12.7,28.7
	c0.2,0.8-0.5,1.5-1.3,1.5c-1.4-0.1-3.3-0.2-4.3-0.3c-11.5-1-22.6,0.8-32.9,6.2c-15.7,8.2-32.4,28.8-39.5,48.4
	c-0.5,1.3,1,2.5,2.2,1.7c12.5-7.7,25.4-13.5,34.1-15.3c1.2-0.2,2.1,1.1,1.5,2.1c-10.1,15.6-17.3,32.5-25.2,49.1
	c-13,27.6-32.6,58.4-55.3,78.9c-23.5,21.1-49.9,35.5-80.9,41.6c-0.9,0.2-0.9,1.6,0.1,1.6c28.7,3.3,96.5-5.1,138.2-40.4
	c31.7-26.6,83.6-82,83.6-170.6C757.2,502.7,757.7,408.4,693.6,356.5L693.6,356.5z"/>
</svg>
