<?xml version="1.0" encoding="utf-8"?>
<!-- Generator: Adobe Illustrator 28.4.1, SVG Export Plug-In . SVG Version: 6.00 Build 0)  -->
<svg version="1.1" id="Ebene_1" xmlns="http://www.w3.org/2000/svg" xmlns:xlink="http://www.w3.org/1999/xlink" x="0px" y="0px"
	 viewBox="0 0 100 100" style="enable-background:new 0 0 100 100;" xml:space="preserve">
<style type="text/css">
	.st0{fill:#353535;}
</style>
<path class="st0" d="M63.5,22.5c-1.5,2.2-5.4,7.9-9,14.7c-0.3,0.6-1.3,0.6-1.5-0.1C48.2,24.5,41.1,12.6,38.8,9
	c-0.3-0.5-1.1-0.5-1.4,0c-3.5,5.6-18.7,31-18.7,48.6c0,12.6,6.7,20.2,15.6,21.9v10.8c0,1,0.8,1.8,1.8,1.8h4.1c1,0,1.8-0.8,1.8-1.8
	V79.4c3.9-0.8,7.4-2.7,10.1-5.7c2.2,2.1,5.1,3.5,8.3,4.1v12.4c0,1,0.8,1.8,1.8,1.8h4.1c1,0,1.8-0.8,1.8-1.8V77.9
	c7.6-1.5,13.3-7.7,13.3-17.1c0-13.8-13.3-33.6-16.5-38.2C64.5,22,63.8,22,63.5,22.5z"/>
</svg>
