<?xml version="1.0" encoding="utf-8"?>
<!-- Generator: Adobe Illustrator 28.4.1, SVG Export Plug-In . SVG Version: 6.00 Build 0)  -->
<svg version="1.1" id="Ebene_1" xmlns="http://www.w3.org/2000/svg" xmlns:xlink="http://www.w3.org/1999/xlink" x="0px" y="0px"
	 viewBox="0 0 1024 1024" style="enable-background:new 0 0 1024 1024;" xml:space="preserve">
<style type="text/css">
	.st0{fill:#1C1D21;}
	.st1{fill:#FFFFFF;}
</style>
<rect class="st0" width="1024" height="1024"/>
<g id="logo">
	<path class="st1" d="M751.78,304.59c-65-52.64-150.83-98.66-247.48-99.88c-94.5-1.19-206.37,40.71-276.58,156.65
		c-18.99,31.35-42.57,111.27-42.57,163.13c0,22.57,3.03,44.47,6.55,65.9c7.91,48.28,17.31,84.42,38.72,113.57
		c25.32,34.48,60.32,57.79,64.28,53.83c3.82-3.82-57.16-64.03-45.14-147.73c0.38-2.6-4.18-3.21-5.06-0.76
		c-3.29,9.28-10.07,25.56-12.32,31.53c-0.31,0.84-1.48,0.85-1.81,0.02c-0.07-0.17-0.14-0.35-0.2-0.52
		c-5.69-15.05-7.53-30.89-8.34-46.8c-0.67-13.24-0.23-26.52,1.56-39.65c4.54-33.53,14.84-65.13,30.93-94.68
		c3.25-5.96,10.15-16.34,14.16-21.82c1.35-1.85,0.09-3.26-2.01-2.56c-10.87,3.62-20.81,8.56-30.38,12.65
		c-0.89,0.38-1.78-0.55-1.38-1.43c1.53-3.37,2.85-6.41,4.43-9.29c17.6-31.94,40.29-59.53,69.03-81.94c1.03-0.81,2.22-2.49,2.65-3.73
		c9.55-27.86,25.77-51.32,46.78-71.5c10.19-9.79,21.26-18.57,34.54-23.97c1.74-0.71,3.67,0.26,4.14,2.09
		c3.34,12.76-0.11,28.46,2.87,41.28c1.5,6.47,5.33,15.75,10.17,20.18c0.88,0.81,2.27,0.66,3.02-0.27
		c10.35-12.93,21.29-24.61,34-34.49c9.76-7.59,19.98-14.43,31.94-18.09c6.16-1.88,6.69-0.07,5.04,9.17
		c-0.89,4.96-1.98,9.89-3.25,14.77c-5.23,20.15-10.57,40.28-15.99,60.38c-0.71,2.65,0.17,3.79,2.05,5.47
		c5.59,5.04,26.98,31.4,34.58,47.84c3.87,8.38,7.32,17.11,12.39,24.72c10.57,15.88,25.86,26.55,42.14,35.87
		c3.93,2.25,7.69,4.8,11.56,7.17c2.94,1.8,3.3,4.3,1.62,7.02c-1.78,2.87-3.57,5.85-5.9,8.23c-20.49,20.86-45.32,28.84-74.02,24.9
		c-16.81-2.31-32.96-7.2-48.87-13.05c-8.11-2.98-16.27-6.01-25.19-5.65c-6.89,0.28-10.95,6.16-11.36,13.11
		c-0.41,6.84,23.02,69.94,102.9,110.58l0,0c-1.95,27.03-35.4,49.97-66.91,63.89c-2.28,1-1.22,4.54,1.25,4.75
		c15.07,1.3,58.19-2.98,86.26-48.38c19.16-30.98,67.36-112.55,92.53-137.81c28.68-28.78,62.49-45.21,103.89-41.69
		c27.7,2.35,51.66,12.76,70.07,34.7c9.25,11.02,13.93,23.92,16.81,38.11c0.21,1.04-0.64,1.99-1.7,1.91
		c-1.8-0.14-4.31-0.34-5.77-0.46c-15.32-1.34-29.94,1.04-43.7,8.2c-20.84,10.86-43.04,38.29-52.43,64.21
		c-0.63,1.74,1.3,3.3,2.88,2.32c16.65-10.24,33.71-17.92,45.27-20.31c1.6-0.33,2.8,1.44,1.92,2.82
		c-13.35,20.74-23.01,43.19-33.36,65.25c-17.21,36.68-43.33,77.6-73.4,104.65c-31.09,27.96-66.16,47.18-107.4,55.26
		c-1.24,0.24-1.17,2.03,0.09,2.17c38.06,4.38,128.17-6.87,183.51-53.63c41.44-35.02,110.38-108.7,110.37-226.17
		c0-37.95,0.75-163.1-84.37-232.03V304.59z"/>
</g>
</svg>
