<?xml version="1.0" encoding="utf-8"?>
<!-- Generator: Adobe Illustrator 28.4.1, SVG Export Plug-In . SVG Version: 6.00 Build 0)  -->
<svg version="1.1" id="icon_00000041279580138467949070000016494849980104061581_"
	 xmlns="http://www.w3.org/2000/svg" xmlns:xlink="http://www.w3.org/1999/xlink" x="0px" y="0px" viewBox="0 0 100 100"
	 style="enable-background:new 0 0 100 100;" xml:space="preserve">
<style type="text/css">
	.st0{fill:#353535;}
	.st1{fill:none;}
</style>
<g id="icon">
	<path class="st0" d="M19.5,44l-5.9,10.2c-0.6,1-0.7,2.2-0.4,3.3c0.3,1.1,1,2.1,2,2.7l17.5,10.1l-3-5.9L19.5,44z"/>
	<path class="st0" d="M23.3,36.9l18.5,37c0.2,0.3,0.4,0.6,0.6,0.9V22.4L25.2,31C23.1,32.1,22.2,34.7,23.3,36.9z"/>
	<path class="st0" d="M49,78.1c0,2.4,2,4.4,4.4,4.4h29.3c2.4,0,4.4-2,4.4-4.4V21.9c0-2.4-2-4.4-4.4-4.4H53.4c-2.4,0-4.4,2-4.4,4.4
		V78.1z"/>
</g>
<rect id="frame" class="st1" width="100" height="100"/>
</svg>
