<?xml version="1.0" encoding="utf-8"?>
<!-- Generator: Adobe Illustrator 28.4.1, SVG Export Plug-In . SVG Version: 6.00 Build 0)  -->
<svg version="1.1" id="icon_00000054265509475014139160000018180879702687547806_"
	 xmlns="http://www.w3.org/2000/svg" xmlns:xlink="http://www.w3.org/1999/xlink" x="0px" y="0px" viewBox="0 0 100 100"
	 style="enable-background:new 0 0 100 100;" xml:space="preserve">
<style type="text/css">
	.st0{fill:#353535;}
	.st1{fill:none;}
</style>
<g id="icon">
	<path class="st0" d="M68.1,83.7l-5.4-7.1c-0.5-0.8,0.1-1.8,1-1.8H79c0.9,0,1.5-0.9,1.1-1.7c-2.3-4.5-5.9-10-7.1-12.7
		c-0.4-0.8,0.2-1.7,1.1-1.7h4.1c0.9,0,1.5-0.9,1.1-1.7L66.5,31c-0.4-0.9-1.8-0.9-2.2,0l-5.5,12.2c-0.4,0.9-1.8,0.9-2.2,0l-12.2-28
		c-0.4-0.9-1.7-1-2.2,0L22.7,56c-0.4,0.8,0.2,1.7,1.1,1.7H31c0.8,0,1.4,0.8,1.1,1.6c-1.8,4.7-7.6,15.3-12.2,24.5
		c-0.4,0.8,0.2,1.7,1.1,1.7h46.1C68,85.5,68.6,84.5,68.1,83.7z"/>
</g>
<rect id="frame" class="st1" width="100" height="100"/>
</svg>
