<?xml version="1.0" encoding="utf-8"?>
<!-- Generator: Adobe Illustrator 28.4.1, SVG Export Plug-In . SVG Version: 6.00 Build 0)  -->
<svg version="1.1" id="Ebene_1" xmlns="http://www.w3.org/2000/svg" xmlns:xlink="http://www.w3.org/1999/xlink" x="0px" y="0px"
	 viewBox="0 0 316 177.33" style="enable-background:new 0 0 316 177.33;" xml:space="preserve">
<path d="M305.73,156.21c-1.01-3.16-7.21-5-9.59-6.39c-0.3-0.17-0.38-0.57-0.2-0.86c2.47-3.92,4.89-5.71,6.51-7.17
	c0.25-0.23,0.07-0.65-0.27-0.62c-3.81,0.31-8.68,3.51-10.64,5.01c-0.22,0.17-0.53-0.02-0.48-0.29c0.74-4.3,3.61-7.04,3.66-9.18
	c0.01-0.41-0.47-0.65-0.79-0.38c-2.9,2.5-5.63,5.8-7.24,8.12c-0.16,0.23-0.52,0.2-0.64-0.06c-1.73-4.06-1.1-7.46-1.55-9.27
	c-0.08-0.34-0.53-0.43-0.73-0.14c-2.25,3.29-2.79,7.64-2.82,10c-1.54-0.4-8.95-2.85-12.78-4.01c-1.29-0.39-2.37-1.25-3.05-2.42
	c-2.1-3.65-6.66-11.6-8.29-15.2c-0.41-0.9,0.06-1.62,1.04-1.62c1.31,0,3.13,0,4.52,0c0.94,0,1.51-1.02,1.03-1.82
	c-3.54-5.9-6.89-11.49-10.41-17.35c-0.48-0.79,0.09-1.81,1.03-1.81c1.47,0,3.43,0,4.9,0c0.93,0,1.49-1.01,1-1.78
	c-3.12-4.95-6.24-9.9-9.56-15.18c-0.54-0.86,0.02-2,1.04-2.08c1.39-0.11,2.07-0.17,3.11-0.25c0.91-0.07,1.48-1.03,1.1-1.87
	c-3.93-8.87-7.03-17.43-10.56-25.41c-0.44-0.99-1.85-0.97-2.27,0.03c-3.29,7.93-6.81,16.42-10.4,25.07c-0.29,0.71,0.17,1.5,0.94,1.6
	c0.66,0.08,1.44,0.18,2.14,0.27c0.88,0.11,1.34,1.09,0.86,1.84c-3.29,5.2-5.47,10.17-8.74,15.38c-0.56,0.9,0.08,2.07,1.14,2.07
	c1.69,0,3.28,0,4.94,0c1.05,0,1.72,1.13,1.21,2.05c-3.31,5.95-6.93,9.32-10.07,14.97c-0.48,0.87,0.15,1.94,1.14,1.94
	c1.11,0,2.45,0,3.55,0l2.52-0.03c0.43-0.01,0.72,0.44,0.54,0.83c-1.53,3.21-4.49,8.27-6.94,12.4c-0.27,0.46-0.79,0.7-1.32,0.62
	c-2.84-0.44-4.36-2.73-4.53-3.01c-1.98-3.14-4.44-6.62-6.49-9.84c-0.59-0.93,0.14-2.13,1.24-2.05c1.35,0.1,2.58,0.19,3.83,0.28
	c1.05,0.08,1.76-1.06,1.23-1.97c-2.87-4.9-5.55-9.48-8.41-14.35c-0.51-0.88,0.12-1.98,1.15-1.98c0.81,0,1.7,0,2.46,0
	c0.85,0,1.41-0.86,1.09-1.63c-3.32-7.88-6.04-15.2-9.07-22.43c-0.45-1.07-1.98-1.06-2.4,0.03c-2.71,7.17-6.57,15.84-9.57,23.77
	c-0.28,0.75,0.41,1.79,0.91,1.78c1.34-0.03,4.59-1.1,2.97,1.28c-2.94,4.31-5.32,8.88-8.17,13.63c-0.49,0.82,0.02,1.89,0.98,1.99
	c1.1,0.12,2.2,0.24,3.4,0.37c1.01,0.11,1.55,1.24,1,2.09c-0.98,1.52-2.27,3.45-3.4,5.08c-0.19,0.28-0.62,0.52-0.96,0.54
	c-1.02,0.06-2.31,0.06-2.53-0.25c-1.57-2.16-4.04-6.19-5.68-8.73c-0.66-1.02,0-2.38,1.21-2.51c1.41-0.15,2.72-0.29,4.03-0.44
	c1.14-0.12,1.77-1.39,1.18-2.38c-3.41-5.68-6.56-10.95-9.77-16.3c-0.54-0.9-1.11-2,0.1-2.32l2.32-0.39
	c0.92-0.24,1.43-1.24,1.09-2.13c-3.59-9.49-7.07-18.69-10.31-27.26c-0.49-1.3-2.32-1.33-2.86-0.05c-3.63,8.64-6.88,17.4-10.85,26.83
	c-0.39,0.92,0.29,1.95,1.3,1.95c0.91,0,1.97,0,2.94,0c1.23,0,1.99,1.32,1.37,2.37c-3.42,5.83-6.63,11.31-10.07,17.18
	c-0.64,1.08,0.22,2.43,1.48,2.34c1.51-0.11,3-0.22,4.63-0.33c1.3-0.09,2.17,1.31,1.48,2.4c-2.29,3.6-3.91,7.11-6.12,10.65
	c-0.14,0.23-0.39,0.37-0.66,0.39c-0.46,0.04-1.79,0.01-2.9,0c-1.95-0.02-6.09-12.02-8.66-16.83c-0.46-0.86,0.17-1.9,1.15-1.9l2.84,0
	c1.4,0,2.03-1.07,1.55-1.94c-3.04-5.48-6.03-10.86-9.23-16.62c-0.5-0.91,0.15-2.03,1.18-2.03c1.77,0,4.21,0,5.95,0
	c0.95,0,1.53-1.05,1.02-1.84c-3.23-5.11-6.31-9.98-9.53-15.07c-0.38-0.6-0.12-1.17,0.59-1.26l2.4-0.3c1.03-0.13,1.5-0.93,1.2-1.64
	c-3.47-8.37-7.3-17.12-10.49-24.81c-0.42-1.01-1.84-1.02-2.28-0.03c-3.46,7.79-7.14,16.08-10.99,24.74
	c-0.33,0.75,0.17,1.6,0.99,1.67c1.19,0.1,2.8,0.23,4.05,0.33c0.9,0.07,1.4,1.07,0.92,1.83c-3.27,5.2-6.34,10.07-9.41,14.94
	c-0.48,0.76,0.07,1.75,0.97,1.75l4.44,0c1.05,0,1.69,1.15,1.15,2.05c-3.33,5.56-6.52,10.87-9.87,16.46c-0.5,0.84,0.1,1.92,1.09,1.92
	c1.23,0,2.76,0,3.99,0c1.01,0,1.46,1,1.14,1.94c-1.46,4.33-2.79,7.96-5.02,11.89c-1.51,2.66-6.46,1.98-8.31-0.46
	c-4.09-5.37-9.73-10.18-13.71-15.33c-0.63-0.81-0.05-2,0.98-2.03c5.52-0.16,5.22,0,11.7,0.08c2.61,0.03,2.3-1.64,0.84-3.33
	c-5.13-5.97-12.8-16.98-17.13-23.18c-0.73-1.05,0.04-2.48,1.33-2.48c0,0,8.64,2.04,10.82,2.28c1.04,0.11,2.69-1.6,1.29-2.92
	c-3.6-3.38-18.16-23.05-19.36-27.95c-0.19-0.76,0.42-1.48,1.21-1.44c2.01,0.11,3.65,0.67,5.61,0.78c0.95,0.05,2.57-0.51,1.38-2.41
	C87.11,38.87,76.87,16.44,75,10.19c-0.34-1.15-1.98-1.12-2.28,0.04c-2.68,10.2-12.07,28.97-14.69,35.18c-0.45,1.05,0.07,2.02,1.22,2
	c2.01-0.03,4.16-1.17,5.93-1.31c0.99-0.08,1.64,1,1.09,1.82c-5.02,7.53-12.97,20.3-18.49,27.47c-0.66,0.86-0.05,2.1,1.04,2.1
	l11.08-2.18c0.91,0,1.53,0.93,1.16,1.76c-3.39,7.46-12.07,16.86-16.29,21.39c-0.75,0.81-0.18,2.12,0.93,2.12c2.92,0,7.38,0,10.09,0
	c1,0,1.64,1.08,1.15,1.96c-5.02,9.19-9.33,13.42-15.74,21.64c-0.85,1.09-0.43,2.08,0.95,2.22c6.09,0.61,15.95,1.28,18.78,1.5
	c1.6,0.12,2.06,1.24,1.21,2.65c-1.12,1.87-15.58,6.44-30.28,7.67c-0.11,0.01-0.22-0.01-0.33-0.02c-0.09,0.05-0.18,0.09-0.27,0.14
	c-0.09-2.75-0.62-7.33-2.89-10.72c-0.22-0.32-0.71-0.22-0.81,0.16c-0.51,2.12,0.26,6.18-2,11c-1.67-2.58-4.88-6.62-8.31-9.63
	c-0.34-0.3-0.9-0.06-0.89,0.39c0.05,2.52,3.57,5.79,4.13,11.08c-1.93-1.59-6.34-4.78-10.97-5.18c-0.35-0.03-0.58,0.39-0.37,0.67
	c1.22,1.64,3.79,3.01,6.94,7.23c-0.01,0.05-0.02,0.08-0.04,0.13c-1.5,0.57-2.92,1.11-4.28,1.76c-3.42,1.63-2.61,2.78,0.68,4.56
	c3.21,1.74,6.64,3.22,10.13,4.28c18.68,5.62,41.44,0.56,35.78-4.5c-4.03-3.59,3.47-6.89,99.61-7.5c28.62-0.18,65.04,1.76,99.97,8.88
	c14.47,2.95,17.62,8.28,24.82,8.97C304.3,161.96,306.16,157.56,305.73,156.21z"/>
</svg>
