<?xml version="1.0" encoding="utf-8"?>
<!-- Generator: Adobe Illustrator 28.4.1, SVG Export Plug-In . SVG Version: 6.00 Build 0)  -->
<svg version="1.1" id="Ebene_1" xmlns="http://www.w3.org/2000/svg"
  xmlns:xlink="http://www.w3.org/1999/xlink" x="0px" y="0px"
  viewBox="0 0 124.69 37.11" style="enable-background:new 0 0 124.69 37.11;" xml:space="preserve">
<style type="text/css">
	.st0{fill:#fff;}
</style>
<path class="st0" d="M81.71,13.68c3.14-3.87,8.85-3.58,11.43-1.62c2.16,1.64,3.25,3.91,3.34,6.46c0.18,5.14,0.05,10.28,0.05,15.5
	c-1.74,0-3.43,0-5.27,0c0-0.47,0-0.92,0-1.37c0-3.85,0.02-7.71-0.02-11.56c-0.01-0.87-0.12-1.76-0.36-2.59
	c-0.64-2.25-2.47-3.34-4.93-3.04c-2.32,0.28-4.22,2.38-4.24,4.83c-0.04,4.1-0.01,8.21-0.01,12.31c0,0.45,0,0.9,0,1.41
	c-1.81,0-3.51,0-5.28,0c0-10.53,0-21.02,0-31.61c1.67,0,3.4,0,5.27,0C81.71,6.12,81.71,9.82,81.71,13.68z"/>
<path class="st0" d="M39.21,24.02c-5.57,0-10.8,0-16.02,0c-0.03,2.85,1.8,4.95,3.67,5.64c2.28,0.85,4.82,0.2,6.26-1.8
	c0.46-0.64,0.9-0.84,1.64-0.81c1.34,0.05,2.68,0.01,4.14,0.01c-0.49,2.28-1.73,4.02-3.49,5.3c-6.22,4.54-16.19,2.1-17.62-7.16
	c-0.58-3.74-0.09-7.26,2.17-10.35c2.68-3.65,6.49-4.74,10.76-4.07c4.11,0.64,7.2,3.85,7.94,7.97
	C38.97,20.44,39.03,22.18,39.21,24.02z M33.74,19.98c-0.35-3.03-2.46-4.85-5.44-4.76c-2.44,0.07-4.8,2.34-4.91,4.76
	C26.81,19.98,30.22,19.98,33.74,19.98z"/>
<path class="st0" d="M121.95,24.02c-5.57,0-10.8,0-16.01,0c-0.2,2.79,1.75,5,3.59,5.67c2.28,0.84,4.8,0.15,6.15-1.76
	c0.46-0.65,0.93-0.92,1.74-0.88c1.37,0.07,2.74,0.02,4.24,0.02c-0.81,2.88-2.44,5-4.99,6.2c-4.26,2.01-8.53,1.97-12.35-1.03
	c-3.31-2.6-4.18-6.34-3.95-10.33c0.21-3.62,1.48-6.8,4.46-9.14c4.93-3.86,14.48-3.06,16.56,5.84
	C121.8,20.33,121.78,22.14,121.95,24.02z M106.05,20.01c1.72,0,8.61,0,10.34,0c0.04-2.54-2.17-4.63-4.41-4.79
	C108.94,15,106.53,16.93,106.05,20.01z"/>
<path class="st0" d="M16.74,6.49c-4.87-0.18-5.39,0.27-5.3,4.7c1.56,0,3.12,0,4.72,0c0,1.63,0,3.12,0,4.75c-1.63,0-3.15,0-4.78,0
	c0,6.1,0,12.07,0,18.1c-1.8,0-3.51,0-5.33,0c0-5.95,0-11.91,0-18.02c-1.38,0-2.65,0-4,0c0-1.58,0-3.02,0-4.57
	c1.28-0.06,2.56-0.12,3.92-0.18C6,8.3,5.48,5.17,8.36,3.21c2.32-1.54,5.49-1.19,8.38-0.76C16.74,3.84,16.74,5.16,16.74,6.49z"/>
<path class="st0" d="M55.11,11.15c0,1.71,0,3.28,0,4.92c-1.37,0.14-2.65,0.19-3.9,0.41c-0.67,0.12-1.34,0.43-1.94,0.79
	c-1.17,0.71-1.83,1.69-1.81,3.18c0.05,3.89-0.01,7.78-0.04,11.67c0,0.62-0.06,1.24-0.09,1.91c-1.8,0-3.5,0-5.27,0
	c0-7.67,0-15.3,0-23.02c1.7,0,3.39,0,5.09,0c0,1,0,1.94,0,3.09C49.22,11.25,51.92,10.38,55.11,11.15z"/>
<path class="st0" d="M67,27.73c-0.08-1.41-0.09-2.83-0.1-3.9c-0.01-1.82-0.01-3.65-0.01-5.52v-2.5h5.18v-4.5h-5.02v-6.2h-5.1
	l-0.36,6.46H57.9v4.33h3.83v0.12c0,1.23,0,2.45,0,3.66c-0.01,2.93-0.01,5.7,0.02,8.53c0.02,2.51,0.98,4.25,2.84,5.19
	c2.5,1.27,5.09,0.92,7.53,0.34v-3.99c-0.29,0.02-0.56,0.04-0.84,0.06c-0.69,0.05-1.33,0.1-1.99,0.09
	C67.79,29.87,67.08,29.18,67,27.73z"/>
</svg>