<?xml version="1.0" encoding="UTF-8"?>
<svg xmlns="http://www.w3.org/2000/svg" viewBox="0 0 832.42 1014.56">
  <g id="label">
    <path id="e_path" d="M636.98,986.03c-2.8-.16-4.38.65-6.09,3.09-5.56,7.91-16.18,10.98-25.83,7.43-7.92-2.9-15.89-12.2-15.06-23.75l.07-.93h64.02c-.18-2.06-.31-4.09-.44-6.1-.32-5.01-.62-9.74-1.69-14.31-3.34-14.32-12.12-24.65-24.73-29.09-4.43-1.56-9.18-2.31-13.94-2.31-9.46,0-18.98,2.98-26.12,8.57-10.86,8.5-16.59,20.25-17.51,35.9-1.07,18.29,3.98,31.56,15.44,40.55,14.18,11.12,30.5,12.47,48.49,3.99,9.32-4.39,15.73-12.11,19.09-22.96-1.33,0-2.64.02-3.93.04-4.06.05-7.9.09-11.77-.12ZM590.42,956.65c2.02-12.95,11.99-21,24.84-20.06,8.93.66,18.76,9.13,18.61,20.23v.99h-43.62l.18-1.16Z" style="fill: #000; stroke-width: 0px;"/>
    <path id="h_path" d="M542.04,925.72c-9.92-7.54-32.17-8.82-44.45,6.32l-1.78,2.2v-47h-19.14v124.72h19.15v-4.67c0-4.83,0-9.67-.02-14.5-.02-11.43-.05-23.25.06-34.87.1-10.2,7.96-19.14,17.89-20.34,10.41-1.26,18.19,3.57,20.83,12.91.92,3.26,1.43,6.95,1.47,10.66.11,11.39.09,22.98.07,34.18v16.64s19.11,0,19.11,0c0-5.79.05-11.56.09-17.31.11-14.39.21-29.26-.31-43.8-.37-10.27-4.86-18.95-12.98-25.12Z" style="fill: #000; stroke-width: 0px;"/>
    <path id="t_path" d="M446.93,996.96c-6.11-.12-9.25-3.13-9.58-9.19-.31-5.68-.38-11.35-.41-15.65-.04-7.31-.03-14.62-.03-22.12v-10.51h20.77v-17.02h-20.12v-24.85h-19.48l-1.46,25.88h-14.78v16.35h15.34v1c0,4.94,0,9.83-.02,14.69-.03,11.74-.05,22.83.06,34.15.1,9.85,3.83,16.71,11.1,20.39,9.76,4.93,19.9,3.66,29.45,1.43v-15.09c-.96.06-1.9.13-2.82.2-2.76.2-5.37.41-8.03.34Z" style="fill: #000; stroke-width: 0px;"/>
    <path id="r_path" d="M359.12,933.67l-1.81,2.51v-14.46h-18.39v90.28h19.17c.03-.54.06-1.07.1-1.6.1-1.72.21-3.38.22-5.04.03-3.73.06-7.45.09-11.18.11-11.67.22-23.73.05-35.59-.08-5.96,2.45-10.41,7.75-13.62,2.89-1.75,5.62-2.86,8.11-3.29,3.55-.62,7.1-.92,10.86-1.23,1.29-.11,2.6-.22,3.93-.34v-18c-12.58-2.78-22.43,1.01-30.08,11.58Z" style="fill: #000; stroke-width: 0px;"/>
    <path id="e_path-2" data-name="e_path" d="M324.74,971.87c-.18-1.97-.33-3.9-.48-5.81-.38-4.91-.74-9.54-1.58-14.11-2.98-16.42-15.15-28.64-31.01-31.13-3.16-.49-6.19-.74-9.11-.74-13.86,0-24.96,5.58-33.08,16.66-8.22,11.22-11.01,24.55-8.51,40.74,2.43,15.83,11.34,27.69,25.1,33.41,14.39,5.98,31.24,3.93,43.96-5.35,6.86-5,11.33-11.54,13.31-19.44-1.33,0-2.63.01-3.91.02-3.97.03-7.72.06-11.49-.09-2.68-.11-4.07.58-5.7,2.84-5.91,8.18-16.47,11.21-26.26,7.56-7.5-2.79-15.5-11.36-15.36-23.57v-.99h64.12ZM261.44,956.61c.47-10.18,10.31-19.74,20.66-20.05,12.31-.36,21.4,7.47,22.83,19.98l.13,1.12h-43.67l.05-1.05Z" style="fill: #000; stroke-width: 0px;"/>
    <path id="f_path" d="M204.08,890.26c-9.48,6.46-9.33,16.14-9.18,26.39.03,1.71.05,3.41.03,5.11v.95s-15.72.72-15.72.72v16.34h16.05v72.24h19.36v-72.55h19.15v-17.03h-18.9l-.02-.98c-.17-8.92.29-13.98,3.23-16.86,2.99-2.94,8.26-3.37,18.04-3.04v-14.27c-11.53-1.7-23.4-2.73-32.04,3Z" style="fill: #000; stroke-width: 0px;"/>
  </g>
  <g id="logo">
    <path d="M724.54,127.75C641.42,60.44,531.68,1.59,408.09.03,287.25-1.49,144.21,52.09,54.43,200.34,30.15,240.43,0,342.62,0,408.93c0,28.86,3.88,56.86,8.37,84.27,10.11,61.73,22.14,107.94,49.51,145.22,32.37,44.09,77.13,73.9,82.19,68.83,4.89-4.89-73.09-81.88-57.72-188.9.48-3.32-5.35-4.1-6.47-.97-4.21,11.86-12.88,32.68-15.75,40.32-.4,1.07-1.89,1.09-2.32.03-.09-.22-.18-.45-.26-.67-7.28-19.25-9.63-39.5-10.66-59.84-.86-16.93-.29-33.91,1.99-50.7,5.8-42.87,18.97-83.28,39.55-121.07,4.15-7.62,12.98-20.89,18.1-27.9,1.73-2.37.12-4.17-2.57-3.27-13.9,4.63-26.61,10.94-38.84,16.17-1.14.49-2.28-.7-1.77-1.83,1.96-4.31,3.64-8.19,5.67-11.88,22.51-40.84,51.52-76.12,88.27-104.77,1.32-1.03,2.84-3.18,3.39-4.77,12.21-35.62,32.95-65.62,59.82-91.43,13.03-12.52,27.18-23.74,44.17-30.65,2.23-.91,4.69.33,5.3,2.67,4.27,16.31-.14,36.39,3.67,52.78,1.92,8.27,6.81,20.14,13.01,25.81,1.13,1.03,2.9.84,3.86-.35,13.23-16.53,27.22-31.47,43.48-44.1,12.48-9.7,25.55-18.45,40.84-23.13,7.88-2.41,8.56-.09,6.44,11.73-1.14,6.34-2.53,12.64-4.15,18.88-6.69,25.77-13.51,51.51-20.45,77.21-.91,3.39.22,4.84,2.62,7,7.15,6.44,34.5,40.15,44.22,61.17,4.95,10.71,9.36,21.88,15.84,31.61,13.52,20.3,33.07,33.95,53.88,45.86,5.03,2.88,9.83,6.14,14.78,9.17,3.76,2.3,4.22,5.5,2.07,8.97-2.27,3.67-4.56,7.48-7.54,10.52-26.2,26.67-57.95,36.88-94.65,31.84-21.5-2.96-42.14-9.21-62.49-16.69-10.37-3.81-20.81-7.69-32.21-7.22-8.81.36-14,7.88-14.52,16.76-.52,8.74,29.44,89.43,131.58,141.4h0c-2.49,34.56-45.27,63.89-85.56,81.7-2.91,1.28-1.56,5.81,1.6,6.08,19.27,1.66,74.4-3.81,110.3-61.86,24.5-39.61,86.13-143.92,118.31-176.21,36.67-36.8,79.9-57.81,132.84-53.31,35.42,3.01,66.06,16.32,89.6,44.37,11.83,14.09,17.81,30.58,21.49,48.73.27,1.33-.82,2.55-2.17,2.44-2.3-.18-5.51-.43-7.38-.59-19.59-1.71-38.29,1.33-55.88,10.49-26.65,13.89-55.04,48.96-67.04,82.1-.81,2.23,1.66,4.22,3.68,2.97,21.29-13.09,43.11-22.91,57.89-25.97,2.04-.42,3.58,1.84,2.45,3.6-17.07,26.52-29.42,55.22-42.66,83.44-22,46.9-55.41,99.22-93.86,133.81-39.75,35.75-84.6,60.33-137.33,70.66-1.58.31-1.49,2.6.11,2.78,48.67,5.6,163.89-8.78,234.65-68.57,52.99-44.78,141.14-138.99,141.13-289.2,0-48.52.96-208.55-107.88-296.69Z" style="fill: #000; stroke-width: 0px;"/>
  </g>
</svg>